<svg width="600" height="600" viewBox="0 0 600 600" fill="none" xmlns="http://www.w3.org/2000/svg">
<path d="M59 101C59 92.1634 66.1634 85 75 85H518C526.837 85 534 92.1634 534 101V498C534 506.837 526.837 514 518 514H75C66.1635 514 59 506.837 59 498V101Z" fill="white"/>
<path fill-rule="evenodd" clip-rule="evenodd" d="M52 100C52 88.402 61.402 79 73 79H519C530.598 79 540 88.402 540 100V496C540 507.598 532.598 517 521 517H73C61.402 517 52 507.598 52 496V100ZM73 89C66.9249 89 62 93.9249 62 100V496C62 502.075 66.9249 507 73 507H519C525.075 507 530 502.075 530 496V100C530 93.9249 525.075 89 519 89H73Z" fill="#05060F"/>
<path d="M99 406.909C99 400.884 103.899 396 109.941 396H254.059C260.101 396 265 400.884 265 406.909V512.091H99V406.909Z" fill="#E0EDFE"/>
<path fill-rule="evenodd" clip-rule="evenodd" d="M94 406.909C94 398.109 101.151 391 109.941 391H254.059C262.849 391 270 398.109 270 406.909V517.091H94V406.909ZM109.941 401C106.646 401 104 403.659 104 406.909V507.091H260V406.909C260 403.659 257.354 401 254.059 401H109.941Z" fill="#05060F"/>
<path d="M99 194.909C99 188.884 103.899 184 109.941 184H254.059C260.101 184 265 188.884 265 194.909V323.091C265 329.116 260.101 334 254.059 334H109.941C103.899 334 99 329.116 99 323.091V194.909Z" fill="#E0EDFE"/>
<path fill-rule="evenodd" clip-rule="evenodd" d="M94 194.909C94 186.109 101.151 179 109.941 179H254.059C262.849 179 270 186.109 270 194.909V323.091C270 331.891 262.849 339 254.059 339H109.941C101.151 339 94 331.891 94 323.091V194.909ZM109.941 189C106.646 189 104 191.659 104 194.909V323.091C104 326.341 106.646 329 109.941 329H254.059C257.354 329 260 326.341 260 323.091V194.909C260 191.659 257.354 189 254.059 189H109.941Z" fill="#05060F"/>
<path d="M320 196C320 187.163 327.163 180 336 180H373C381.837 180 389 187.163 389 196V233C389 241.837 381.837 249 373 249H336C327.163 249 320 241.837 320 233V196Z" fill="#F8DB46"/>
<path fill-rule="evenodd" clip-rule="evenodd" d="M320 196C320 187.163 327.163 180 336 180H373C381.837 180 389 187.163 389 196V233C389 241.837 381.837 249 373 249H336C327.163 249 320 241.837 320 233V196ZM336 190H373C376.314 190 379 192.686 379 196V233C379 236.314 376.314 239 373 239H336C332.686 239 330 236.314 330 233V196C330 192.686 332.686 190 336 190Z" fill="#05060F"/>
<path d="M415 198.5C415 195.462 417.462 193 420.5 193H493.5C496.538 193 499 195.462 499 198.5C499 201.538 496.538 204 493.5 204H420.5C417.462 204 415 201.538 415 198.5Z" fill="#05060F"/>
<path d="M415 230.5C415 227.462 417.462 225 420.5 225H480.5C483.538 225 486 227.462 486 230.5C486 233.538 483.538 236 480.5 236H420.5C417.462 236 415 233.538 415 230.5Z" fill="#05060F"/>
<path fill-rule="evenodd" clip-rule="evenodd" d="M404.136 172.464C406.088 174.417 406.088 177.583 404.136 179.536L356.136 227.536C354.197 229.474 351.058 229.49 349.1 227.57L339.5 218.159C337.528 216.225 337.496 213.06 339.43 211.088C341.363 209.116 344.529 209.085 346.5 211.018L352.565 216.964L397.064 172.464C399.017 170.512 402.183 170.512 404.136 172.464Z" fill="#05060F"/>
<path d="M557 413C557 482.036 501.036 538 432 538C362.964 538 307 482.036 307 413C307 343.964 362.964 288 432 288C501.036 288 557 343.964 557 413Z" fill="#4B9BFA"/>
<path fill-rule="evenodd" clip-rule="evenodd" d="M567 413C567 487.558 506.558 548 432 548C357.442 548 297 487.558 297 413C297 338.442 357.442 278 432 278C506.558 278 567 338.442 567 413ZM432 538C501.036 538 557 482.036 557 413C557 343.964 501.036 288 432 288C362.964 288 307 343.964 307 413C307 482.036 362.964 538 432 538Z" fill="#05060F"/>
<path d="M558.347 396.571C544.718 397.768 539.947 398.537 538.634 393.382C537.143 387.532 532.671 372.907 522.235 372.907C517.172 372.907 513.161 377.384 509.182 381.825C504.96 386.537 500.773 391.21 495.401 390.457C483.539 388.795 479.228 380.665 474.679 372.088C470.653 364.495 466.44 356.552 456.641 352.432C435.77 343.657 422.353 340.732 399.991 343.657C377.63 346.582 376.139 311.481 397.01 308.556C417.881 305.631 428.316 296.856 437.261 285.156C437.863 284.369 438.553 283.652 439.318 283C503.723 285.972 553.751 337.624 561 396.571C559.661 396.685 559.563 396.464 558.347 396.571Z" fill="#4ECC5A"/>
<path d="M360.5 521.5C358.649 512.697 358.733 497.325 364.111 480.538C374.241 448.911 357.473 445.139 346.714 442.719C344.251 442.164 342.103 441.681 340.665 440.951C337.185 439.183 334.895 437.044 332.441 434.752C329.453 431.96 326.22 428.94 320.296 426.086C313.83 422.971 307.526 426.297 303.225 431.895C307.946 468.347 330.601 501.978 360.5 521.5Z" fill="#4ECC5A"/>
<path d="M302 405.6C311.225 405.595 322.749 402.571 331.539 391.689C337.178 384.708 341.942 383.186 345.778 381.961C350.415 380.48 353.695 379.433 355.524 369.696C358.616 353.242 338.878 339.447 325.301 338.12C311.606 357.423 303.162 380.58 302 405.6Z" fill="#4ECC5A"/>
<path d="M382.36 415.32C388.42 403.432 405.33 379.155 422.612 390.458C427.086 393.384 440.501 402.158 443.483 402.158C444.339 402.158 446.057 401.796 448.177 401.349C453.435 400.24 461.166 398.611 464.353 400.695C466.927 402.378 469.993 409.871 472.701 416.488C474.7 421.372 476.504 425.779 477.77 427.021C478.622 427.857 480.447 428.931 482.62 430.21C488.053 433.408 495.66 437.885 495.66 443.109C495.66 448.745 489.367 458.04 485.871 463.203C484.832 464.739 484.039 465.909 483.734 466.509C482.624 468.687 482.753 471.676 482.892 474.871C483.126 480.26 483.385 486.237 477.77 489.909C475.84 491.172 473.811 494.908 471.437 499.279C466.186 508.95 459.248 521.726 447.955 517.697C438.457 515.834 436.62 502.692 434.635 488.482C431.882 468.788 428.843 447.041 404.722 450.421C387.898 452.779 375.976 427.848 382.36 415.32Z" fill="#4ECC5A"/>
<path fill-rule="evenodd" clip-rule="evenodd" d="M436.075 279.194C437.04 278.372 438.282 277.947 439.548 278.005C506.552 281.097 558.436 334.759 565.963 395.96C566.128 397.309 565.738 398.667 564.882 399.722C564.026 400.776 562.777 401.437 561.424 401.553C560.943 401.594 560.52 401.609 560.122 401.603C559.732 401.598 559.417 401.573 559.232 401.558L559.227 401.557C559.035 401.542 559.015 401.541 558.989 401.541H558.989C558.978 401.54 558.923 401.539 558.785 401.551C557.962 401.624 557.157 401.696 556.373 401.767C551.009 402.251 546.578 402.65 543.381 402.334C541.423 402.141 539.237 401.638 537.351 400.223C535.348 398.72 534.312 396.671 533.789 394.617C533.072 391.804 531.721 387.256 529.491 383.506C527.187 379.632 524.773 377.907 522.235 377.907C521.263 377.907 520.064 378.319 518.389 379.634C516.666 380.986 514.966 382.862 512.906 385.162L512.739 385.348C510.749 387.57 508.358 390.239 505.698 392.209C502.863 394.309 499.169 396.034 494.707 395.409C480.308 393.391 474.897 383.179 470.486 374.854C470.411 374.712 470.336 374.571 470.262 374.43C466.168 366.711 462.664 360.388 454.703 357.041C444.418 352.716 436.255 349.958 428.052 348.588C419.891 347.226 411.457 347.2 400.64 348.614C393.63 349.531 387.774 347.459 383.641 343.373C379.64 339.417 377.639 333.966 377.298 328.618C376.63 318.132 382.485 305.543 396.316 303.604C406.158 302.225 413.284 299.508 418.928 295.925C424.591 292.33 429.021 287.701 433.289 282.119C434.123 281.028 435.062 280.057 436.075 279.194ZM441.292 288.117C441.272 288.142 441.253 288.167 441.233 288.192C436.556 294.31 431.296 299.919 424.287 304.368C417.26 308.829 408.732 311.962 397.704 313.508C390.663 314.494 386.828 320.918 387.278 327.982C387.496 331.41 388.757 334.368 390.672 336.262C392.456 338.026 395.172 339.245 399.343 338.699C410.888 337.189 420.343 337.163 429.699 338.725C439.012 340.28 447.993 343.372 458.579 347.823C470.029 352.637 474.977 361.972 478.904 369.382C478.968 369.504 479.033 369.625 479.096 369.745C483.74 378.502 487.015 384.233 496.095 385.506C497.006 385.633 498.091 385.399 499.747 384.172C501.505 382.871 503.258 380.944 505.458 378.489L505.599 378.331C507.489 376.221 509.734 373.715 512.215 371.768C514.806 369.734 518.145 367.907 522.235 367.907C530.134 367.907 535.173 373.496 538.087 378.396C541.074 383.421 542.705 389.111 543.479 392.148C543.488 392.184 543.497 392.216 543.505 392.245C543.674 392.288 543.948 392.341 544.364 392.383C546.499 392.594 549.734 392.315 555.253 391.825C546.119 338.065 500.093 291.906 441.292 288.117ZM321.223 335.227C322.261 333.764 324.002 332.969 325.787 333.144C333.784 333.925 343.092 338.238 350.025 344.534C356.955 350.827 362.431 360.016 360.438 370.619C359.451 375.873 357.921 379.72 355.278 382.422C352.766 384.989 349.727 385.953 347.595 386.63C347.494 386.662 347.395 386.693 347.299 386.724C345.387 387.335 343.722 387.879 341.882 388.969C340.069 390.042 337.911 391.757 335.428 394.831C325.45 407.184 312.31 410.594 302.003 410.6C300.636 410.6 299.328 410.042 298.384 409.053C297.44 408.065 296.942 406.733 297.005 405.368C298.214 379.356 306.995 355.281 321.223 335.227ZM327.618 343.563C316.493 360.104 309.316 379.409 307.386 400.201C314.245 399.169 321.662 395.959 327.649 388.547C330.806 384.64 333.85 382.103 336.788 380.364C339.652 378.668 342.25 377.839 344.165 377.228L344.257 377.198C346.753 376.401 347.504 376.067 348.13 375.428C348.743 374.801 349.768 373.256 350.61 368.773C351.71 362.921 348.863 356.986 343.302 351.937C338.634 347.698 332.703 344.728 327.618 343.563ZM408.846 383.011C414.246 381.865 419.904 382.712 425.348 386.273C427.592 387.741 431.984 390.612 436.17 393.112C438.272 394.367 440.241 395.48 441.818 396.264C442.612 396.658 443.224 396.928 443.655 397.089C443.687 397.1 443.717 397.111 443.745 397.121C443.929 397.095 444.164 397.056 444.458 397.002C445.178 396.871 446.064 396.685 447.146 396.457L447.257 396.433C449.822 395.892 453.296 395.16 456.566 394.847C458.233 394.688 460.013 394.62 461.708 394.786C463.339 394.946 465.333 395.362 467.09 396.511C468.609 397.505 469.74 398.99 470.529 400.178C471.39 401.476 472.207 402.992 472.966 404.54C474.468 407.603 475.963 411.257 477.291 414.5L477.329 414.594C478.341 417.068 479.248 419.28 480.053 421.03C480.454 421.903 480.793 422.577 481.07 423.063C481.206 423.302 481.298 423.443 481.345 423.512C481.388 423.546 481.451 423.596 481.539 423.66C481.747 423.813 482.027 424.003 482.391 424.235C483.133 424.709 484.047 425.248 485.157 425.901L485.306 425.989C487.932 427.535 491.492 429.63 494.397 432.074C497.133 434.377 500.66 438.102 500.66 443.109C500.66 445.36 500.051 447.632 499.312 449.633C498.553 451.687 497.536 453.772 496.463 455.733C494.339 459.615 491.784 463.389 490.053 465.945L490.012 466.006L485.871 463.203L490.012 466.006C489.485 466.785 489.051 467.426 488.711 467.946C488.542 468.203 488.412 468.408 488.315 468.566C488.221 468.719 488.187 468.783 488.187 468.783L488.188 468.779C488.074 469.003 487.904 469.523 487.835 470.622C487.765 471.725 487.815 472.993 487.887 474.655C487.895 474.824 487.903 474.999 487.911 475.179C488.138 480.158 488.535 488.843 480.507 494.094C480.508 494.094 480.507 494.095 480.504 494.097C480.457 494.14 479.953 494.602 478.985 496.118C478.055 497.577 477.044 499.432 475.831 501.665L475.675 501.953C473.154 506.598 469.832 512.717 465.542 517.116C463.299 519.417 460.56 521.5 457.247 522.617C453.933 523.735 450.347 523.778 446.621 522.527C439.527 520.966 435.851 515.22 433.77 509.404C431.701 503.623 430.687 496.363 429.732 489.529L429.683 489.174C428.266 479.036 426.893 469.711 423.312 463.211C421.609 460.12 419.541 457.949 416.938 456.639C414.332 455.328 410.695 454.633 405.416 455.373C394.104 456.958 385.273 449.298 380.496 440.932C375.761 432.64 373.652 421.396 377.906 413.05C381.082 406.817 387.18 397.139 395.018 390.401C398.953 387.017 403.622 384.12 408.846 383.011ZM444.015 397.207C444.015 397.207 444.011 397.206 444.004 397.204C444.011 397.206 444.014 397.207 444.015 397.207ZM401.537 397.984C395.084 403.531 389.698 411.935 386.815 417.591C384.684 421.772 385.344 429.257 389.18 435.973C392.973 442.615 398.515 446.242 404.028 445.47C410.81 444.519 416.598 445.274 421.432 447.706C426.268 450.139 429.655 454.001 432.071 458.386C436.639 466.677 438.191 477.799 439.509 487.239L439.586 487.79C440.603 495.063 441.501 501.328 443.185 506.035C444.858 510.708 446.757 512.367 448.918 512.791C449.161 512.839 449.401 512.905 449.635 512.988C451.432 513.629 452.828 513.554 454.053 513.141C455.382 512.693 456.823 511.734 458.382 510.135C461.608 506.827 464.332 501.886 467.043 496.893L467.102 496.786C468.244 494.683 469.414 492.527 470.555 490.74C471.618 489.073 473.093 486.994 475.034 485.725C477.945 483.821 478.153 480.994 477.897 475.088L477.891 474.962C477.826 473.454 477.749 471.682 477.854 469.996C477.963 468.257 478.283 466.193 479.279 464.239C479.731 463.351 480.667 461.971 481.532 460.694C481.599 460.595 481.665 460.497 481.731 460.4C483.495 457.794 485.811 454.368 487.69 450.933C488.627 449.221 489.402 447.603 489.932 446.167C490.482 444.679 490.66 443.675 490.66 443.109C490.66 442.892 490.384 441.767 487.958 439.725C485.756 437.873 482.877 436.163 480.084 434.519L482.62 430.21L480.084 434.519L480.03 434.487C478.985 433.872 477.92 433.245 477.009 432.663C476.147 432.113 475.094 431.4 474.269 430.59C473.44 429.777 472.813 428.771 472.381 428.013C471.901 427.171 471.426 426.205 470.968 425.21C470.064 423.244 469.081 420.841 468.104 418.455L468.074 418.382C466.703 415.031 465.325 411.671 463.987 408.942C463.319 407.58 462.718 406.494 462.196 405.707C461.887 405.241 461.68 404.995 461.585 404.887C461.46 404.85 461.195 404.784 460.733 404.738C459.918 404.658 458.839 404.676 457.517 404.802C454.858 405.056 451.891 405.676 449.208 406.241L449.16 406.252C448.138 406.467 447.123 406.681 446.254 406.84C445.469 406.983 444.417 407.158 443.483 407.158C442.158 407.158 440.91 406.736 440.171 406.462C439.281 406.131 438.321 405.693 437.367 405.219C435.451 404.266 433.228 403.003 431.043 401.698C426.669 399.086 422.129 396.116 419.893 394.654L419.875 394.642C416.678 392.552 413.742 392.195 410.922 392.793C407.925 393.429 404.747 395.224 401.537 397.984ZM308.486 433.413C313.057 463.831 330.651 492.152 354.422 510.965C354.266 501.937 355.586 490.759 359.349 479.013C364.215 463.823 362.048 457.095 359.382 453.85C356.38 450.194 351.327 448.881 345.617 447.597C345.497 447.57 345.374 447.542 345.25 447.514C343.102 447.033 340.413 446.43 338.401 445.409C334.287 443.319 331.559 440.77 329.147 438.517L329.028 438.405C326.124 435.692 323.343 433.104 318.126 430.59C315.167 429.165 311.753 429.947 308.486 433.413ZM299.26 428.85C304.214 422.399 312.886 416.967 322.466 421.581C329.077 424.766 332.758 428.205 335.826 431.071L335.855 431.098C338.322 433.403 340.151 435.082 342.93 436.493C343.677 436.873 345.088 437.228 347.812 437.84C347.961 437.874 348.114 437.908 348.269 437.943C353.372 439.086 361.735 440.959 367.11 447.502C372.985 454.655 374.137 465.626 368.872 482.063C363.729 498.12 363.74 512.609 365.393 520.471C365.809 522.451 364.992 524.486 363.322 525.627C361.653 526.769 359.46 526.792 357.766 525.687C326.736 505.426 303.189 470.545 298.266 432.537C298.097 431.225 298.454 429.899 299.26 428.85Z" fill="#05060F"/>
<path d="M484.747 450.54L484.736 554.07C484.736 557.65 489.234 559.22 491.442 556.411L521.579 518.062C522.294 517.152 523.384 516.623 524.538 516.627L571.298 516.769C574.913 516.78 576.454 512.158 573.563 509.977L490.759 447.524C488.283 445.656 484.747 447.43 484.747 450.54Z" fill="white"/>
<path fill-rule="evenodd" clip-rule="evenodd" d="M485.748 453.022L485.737 550.487L513.648 514.97C515.311 512.854 517.856 511.617 520.554 511.625L563.621 511.756L485.748 453.022ZM475.748 450.538C475.749 443.342 483.968 439.154 489.771 443.53L572.574 505.983C579.256 511.023 575.762 521.793 567.283 521.767L521.136 521.627L491.374 559.498C486.197 566.086 475.736 562.339 475.737 554.068L475.748 450.538Z" fill="#05060F"/>
<path d="M110.307 153.06C118.039 153.06 124.307 146.792 124.307 139.06C124.307 131.328 118.039 125.06 110.307 125.06C102.575 125.06 96.3066 131.328 96.3066 139.06C96.3066 146.792 102.575 153.06 110.307 153.06Z" fill="#DB3232"/>
<path d="M150.307 153.06C158.039 153.06 164.307 146.792 164.307 139.06C164.307 131.328 158.039 125.06 150.307 125.06C142.575 125.06 136.307 131.328 136.307 139.06C136.307 146.792 142.575 153.06 150.307 153.06Z" fill="#F5CB36"/>
<path d="M190.307 153.06C198.039 153.06 204.307 146.792 204.307 139.06C204.307 131.328 198.039 125.06 190.307 125.06C182.575 125.06 176.307 131.328 176.307 139.06C176.307 146.792 182.575 153.06 190.307 153.06Z" fill="#30B83D"/>
</svg>
